HIERARCHY
ROOT Hips
{
	OFFSET 0.000000 83.214638 0.000000
	CHANNELS 6 Xposition Yposition Zposition Xrotation Yrotation Zrotation
	JOINT Pelvis
	{
		OFFSET 0.000000 0.000000 0.000000
		CHANNELS 3 Xrotation Yrotation Zrotation
		JOINT LeftUpLeg
		{
			OFFSET 8.479700 -4.795502 -0.379100
			CHANNELS 3 Xrotation Yrotation Zrotation
			JOINT LeftLeg
			{
				OFFSET 0.024144 -32.555107 0.112900
				CHANNELS 3 Xrotation Yrotation Zrotation
				JOINT LeftFoot
				{
					OFFSET -0.024144 -32.638630 -3.012600
					CHANNELS 3 Xrotation Yrotation Zrotation
					JOINT LeftToeBase
					{
						OFFSET 0.970200 -13.225400 11.864200
						CHANNELS 3 Xrotation Yrotation Zrotation
						End Site
						{
							OFFSET 0.000000 12.319262 0.000000
						}
					}
					JOINT LFootTongue
					{
						OFFSET 1.142400 -1.059800 6.665200
						CHANNELS 3 Xrotation Yrotation Zrotation
						End Site
						{
							OFFSET 0.000000 12.319262 0.000000
						}
					}
				}
				JOINT LeftPantLeg
				{
					OFFSET 0.918482 -16.533964 -2.284700
					CHANNELS 3 Xrotation Yrotation Zrotation
					End Site
					{
						OFFSET 0.350399 24.744368 0.000000
					}
				}
			}
		}
		JOINT RightUpLeg
		{
			OFFSET -8.479700 -4.795502 -0.379100
			CHANNELS 3 Xrotation Yrotation Zrotation
			JOINT RightLeg
			{
				OFFSET -0.023144 -32.555092 0.112900
				CHANNELS 3 Xrotation Yrotation Zrotation
				JOINT RightFoot
				{
					OFFSET 0.023144 -32.638641 -3.012700
					CHANNELS 3 Xrotation Yrotation Zrotation
					JOINT RightToeBase
					{
						OFFSET -0.970200 -13.225400 11.864200
						CHANNELS 3 Xrotation Yrotation Zrotation
						End Site
						{
							OFFSET 0.000000 12.319244 0.000000
						}
					}
					JOINT RFootTongue
					{
						OFFSET -1.142200 -1.059800 6.665200
						CHANNELS 3 Xrotation Yrotation Zrotation
						End Site
						{
							OFFSET 0.000000 12.319243 0.000000
						}
					}
				}
				JOINT RightPantLeg
				{
					OFFSET -0.919482 -16.533978 -2.284800
					CHANNELS 3 Xrotation Yrotation Zrotation
					End Site
					{
						OFFSET -0.350400 24.744419 0.000000
					}
				}
			}
		}
	}
	JOINT Spine
	{
		OFFSET 0.000000 7.722000 1.166200
		CHANNELS 3 Xrotation Yrotation Zrotation
		JOINT Spine1
		{
			OFFSET 0.000000 12.024101 0.248800
			CHANNELS 3 Xrotation Yrotation Zrotation
			JOINT Spine2
			{
				OFFSET 0.000000 11.502998 -0.491200
				CHANNELS 3 Xrotation Yrotation Zrotation
				JOINT Neck
				{
					OFFSET 0.000000 18.430702 -3.123100
					CHANNELS 3 Xrotation Yrotation Zrotation
					JOINT Head
					{
						OFFSET 0.000000 9.051102 1.034000
						CHANNELS 3 Xrotation Yrotation Zrotation
						JOINT HairB
						{
							OFFSET 0.208400 24.786102 24.822300
							CHANNELS 3 Xrotation Yrotation Zrotation
							End Site
							{
								OFFSET 0.000000 32.263779 0.000000
							}
						}
						JOINT HairA
						{
							OFFSET -7.081100 24.428299 23.196600
							CHANNELS 3 Xrotation Yrotation Zrotation
							End Site
							{
								OFFSET 0.000000 32.263779 0.000000
							}
						}
						JOINT Hat
						{
							OFFSET 16.728800 15.048294 -15.439601
							CHANNELS 3 Xrotation Yrotation Zrotation
							End Site
							{
								OFFSET 0.000000 32.263779 0.000000
							}
						}
					}
				}
				JOINT LeftShoulder
				{
					OFFSET 6.197800 13.665199 -4.064700
					CHANNELS 3 Xrotation Yrotation Zrotation
					JOINT LeftArm
					{
						OFFSET 7.778100 -0.187103 -1.709300
						CHANNELS 3 Xrotation Yrotation Zrotation
						JOINT LeftForeArm
						{
							OFFSET 22.049376 0.000000 0.000000
							CHANNELS 3 Xrotation Yrotation Zrotation
							JOINT LeftHand
							{
								OFFSET 23.009392 0.000000 0.000000
								CHANNELS 3 Xrotation Yrotation Zrotation
								JOINT LeftHandThumb1
								{
									OFFSET 3.507191 -2.063065 3.133727
									CHANNELS 3 Xrotation Yrotation Zrotation
									JOINT LeftHandThumb2
									{
										OFFSET 3.101337 -1.790558 1.790558
										CHANNELS 3 Xrotation Yrotation Zrotation
										JOINT LeftHandThumb3
										{
											OFFSET 3.058640 -1.765907 1.765906
											CHANNELS 3 Xrotation Yrotation Zrotation
											End Site
											{
												OFFSET -0.415260 3.926476 -0.049563
											}
										}
									}
								}
								JOINT LeftHandIndex1
								{
									OFFSET 11.334419 -0.901459 3.706815
									CHANNELS 3 Xrotation Yrotation Zrotation
									JOINT LeftHandIndex2
									{
										OFFSET 3.283112 0.000000 0.000000
										CHANNELS 3 Xrotation Yrotation Zrotation
										JOINT LeftHandIndex3
										{
											OFFSET 3.323853 0.000000 0.000000
											CHANNELS 3 Xrotation Yrotation Zrotation
											End Site
											{
												OFFSET -1.135597 3.097809 0.402452
											}
										}
									}
								}
								JOINT LeftHandMiddle1
								{
									OFFSET 11.335861 0.000000 0.000000
									CHANNELS 3 Xrotation Yrotation Zrotation
									JOINT LeftHandMiddle2
									{
										OFFSET 3.410492 0.000000 0.000000
										CHANNELS 3 Xrotation Yrotation Zrotation
										JOINT LeftHandMiddle3
										{
											OFFSET 3.312172 0.000000 0.000000
											CHANNELS 3 Xrotation Yrotation Zrotation
											End Site
											{
												OFFSET -1.150200 3.080154 0.400270
											}
										}
									}
								}
								JOINT LeftHandRing1
								{
									OFFSET 11.514786 -0.013176 -3.003090
									CHANNELS 3 Xrotation Yrotation Zrotation
									JOINT LeftHandRing2
									{
										OFFSET 3.053307 0.000000 0.000000
										CHANNELS 3 Xrotation Yrotation Zrotation
										JOINT LeftHandRing3
										{
											OFFSET 3.295807 0.000000 0.000000
											CHANNELS 3 Xrotation Yrotation Zrotation
											End Site
											{
												OFFSET -1.281006 3.013344 0.375733
											}
										}
									}
								}
								JOINT LeftHandPinky1
								{
									OFFSET 10.518692 -0.960396 -5.730441
									CHANNELS 3 Xrotation Yrotation Zrotation
									JOINT LeftHandPinky2
									{
										OFFSET 2.861649 0.000000 0.000000
										CHANNELS 3 Xrotation Yrotation Zrotation
										JOINT LeftHandPinky3
										{
											OFFSET 2.863380 0.000000 0.000000
											CHANNELS 3 Xrotation Yrotation Zrotation
											End Site
											{
												OFFSET -0.843597 2.711159 0.369971
											}
										}
									}
								}
							}
							JOINT LSleeve
							{
								OFFSET 6.676277 -0.344902 -1.011730
								CHANNELS 3 Xrotation Yrotation Zrotation
								End Site
								{
									OFFSET 0.000000 14.885353 0.000000
								}
							}
						}
					}
				}
				JOINT RightShoulder
				{
					OFFSET -6.197800 13.665199 -4.064700
					CHANNELS 3 Xrotation Yrotation Zrotation
					JOINT RightArm
					{
						OFFSET -7.778100 -0.187103 -1.709300
						CHANNELS 3 Xrotation Yrotation Zrotation
						JOINT RightForeArm
						{
							OFFSET -22.049376 0.000000 0.000000
							CHANNELS 3 Xrotation Yrotation Zrotation
							JOINT RightHand
							{
								OFFSET -23.009392 0.000000 0.000000
								CHANNELS 3 Xrotation Yrotation Zrotation
								JOINT RightHandThumb1
								{
									OFFSET -3.507191 -2.063065 3.133727
									CHANNELS 3 Xrotation Yrotation Zrotation
									JOINT RightHandThumb2
									{
										OFFSET -3.101337 -1.790558 1.790558
										CHANNELS 3 Xrotation Yrotation Zrotation
										JOINT RightHandThumb3
										{
											OFFSET -3.058640 -1.765907 1.765906
											CHANNELS 3 Xrotation Yrotation Zrotation
											End Site
											{
												OFFSET 0.415260 3.926476 -0.049563
											}
										}
									}
								}
								JOINT RightHandIndex1
								{
									OFFSET -11.334419 -0.901459 3.706815
									CHANNELS 3 Xrotation Yrotation Zrotation
									JOINT RightHandIndex2
									{
										OFFSET -3.283112 0.000000 0.000000
										CHANNELS 3 Xrotation Yrotation Zrotation
										JOINT RightHandIndex3
										{
											OFFSET -3.323853 0.000000 0.000000
											CHANNELS 3 Xrotation Yrotation Zrotation
											End Site
											{
												OFFSET 1.135597 3.097809 0.402452
											}
										}
									}
								}
								JOINT RightHandMiddle1
								{
									OFFSET -11.335861 0.000000 0.000000
									CHANNELS 3 Xrotation Yrotation Zrotation
									JOINT RightHandMiddle2
									{
										OFFSET -3.410492 0.000000 0.000000
										CHANNELS 3 Xrotation Yrotation Zrotation
										JOINT RightHandMiddle3
										{
											OFFSET -3.312172 0.000000 0.000000
											CHANNELS 3 Xrotation Yrotation Zrotation
											End Site
											{
												OFFSET 1.150200 3.080154 0.400270
											}
										}
									}
								}
								JOINT RightHandRing1
								{
									OFFSET -11.514786 -0.013176 -3.003090
									CHANNELS 3 Xrotation Yrotation Zrotation
									JOINT RightHandRing2
									{
										OFFSET -3.053307 0.000000 0.000000
										CHANNELS 3 Xrotation Yrotation Zrotation
										JOINT RightHandRing3
										{
											OFFSET -3.295807 0.000000 0.000000
											CHANNELS 3 Xrotation Yrotation Zrotation
											End Site
											{
												OFFSET 1.281006 3.013344 0.375733
											}
										}
									}
								}
								JOINT RightHandPinky1
								{
									OFFSET -10.518692 -0.960396 -5.730441
									CHANNELS 3 Xrotation Yrotation Zrotation
									JOINT RightHandPinky2
									{
										OFFSET -2.861649 0.000000 0.000000
										CHANNELS 3 Xrotation Yrotation Zrotation
										JOINT RightHandPinky3
										{
											OFFSET -2.863380 0.000000 0.000000
											CHANNELS 3 Xrotation Yrotation Zrotation
											End Site
											{
												OFFSET 0.843597 2.711159 0.369971
											}
										}
									}
								}
							}
							JOINT RSleeve
							{
								OFFSET -6.676277 -0.344902 -1.011730
								CHANNELS 3 Xrotation Yrotation Zrotation
								End Site
								{
									OFFSET 0.000000 14.885353 0.000000
								}
							}
						}
					}
				}
				JOINT Backpack
				{
					OFFSET 0.000000 -2.471497 36.677502
					CHANNELS 3 Xrotation Yrotation Zrotation
					End Site
					{
						OFFSET 0.000000 20.427315 0.000000
					}
				}
				JOINT Hood
				{
					OFFSET 0.000000 18.754097 -10.431000
					CHANNELS 3 Xrotation Yrotation Zrotation
					JOINT Hood1
					{
						OFFSET 0.000000 -5.011002 -7.685901
						CHANNELS 3 Xrotation Yrotation Zrotation
						End Site
						{
							OFFSET 0.000000 9.175140 0.000000
						}
					}
				}
				JOINT LHoodieString
				{
					OFFSET 5.250500 16.397697 3.089900
					CHANNELS 3 Xrotation Yrotation Zrotation
					JOINT LHoodieString1
					{
						OFFSET 0.257700 -6.364304 3.694600
						CHANNELS 3 Xrotation Yrotation Zrotation
						JOINT LHoodieString2
						{
							OFFSET 0.000000 -9.643799 2.679100
							CHANNELS 3 Xrotation Yrotation Zrotation
							End Site
							{
								OFFSET 0.000000 10.009018 0.000000
							}
						}
					}
				}
				JOINT RHoodieString
				{
					OFFSET -5.250500 16.397697 3.089900
					CHANNELS 3 Xrotation Yrotation Zrotation
					JOINT RHoodieString1
					{
						OFFSET -0.257700 -6.364304 3.694600
						CHANNELS 3 Xrotation Yrotation Zrotation
						JOINT RHoodieString2
						{
							OFFSET 0.000000 -9.643799 2.679100
							CHANNELS 3 Xrotation Yrotation Zrotation
							End Site
							{
								OFFSET 0.000000 10.009018 0.000000
							}
						}
					}
				}
			}
			JOINT LBackpack_Strap
			{
				OFFSET 15.223200 -7.719803 -6.610900
				CHANNELS 3 Xrotation Yrotation Zrotation
				End Site
				{
					OFFSET 0.000000 16.040596 0.000000
				}
			}
			JOINT RBackpack_Strap
			{
				OFFSET -15.223000 -7.719803 -6.610900
				CHANNELS 3 Xrotation Yrotation Zrotation
				End Site
				{
					OFFSET 0.000000 16.040596 0.000000
				}
			}
		}
	}
	JOINT BoyFacialAnim_Joint
	{
		OFFSET 1.000000 -82.208099 -1.550900
		CHANNELS 3 Xrotation Yrotation Zrotation
		End Site
		{
			OFFSET 0.000000 30.012791 0.000000
		}
	}
}
MOTION
Frames: 4
Frame Time: 0.016667
-0.129767 79.310707 -0.089067 1.363291 -27.067070 0.844933 -0.000000 0.000000 -0.000000 -28.951871 25.738224 14.206081 26.259036 8.647440 10.430565 -1.014866 0.648592 -12.032126 0.000000 -0.000001 0.000000 0.000000 -0.000001 -0.000000 0.000000 0.000000 -0.000000 -20.358909 -17.138883 -9.685945 31.930223 -0.953280 -7.218598 -13.504723 -1.887746 10.682253 0.000000 -0.000000 -0.000000 0.000000 -0.000000 -0.000000 0.000001 -0.000000 0.000000 3.671064 -1.986463 1.002944 1.363086 -0.820711 0.173835 1.366613 -0.813814 0.178821 -1.889907 4.550439 2.461101 17.045027 24.869847 -12.698038 0.000000 0.000000 -0.000000 0.000000 0.000000 -0.000000 0.000000 0.000000 -0.000000 -0.311618 3.473789 4.919200 -51.541803 -1.692570 -52.291908 0.000162 -84.594482 0.000140 -12.268092 -17.441583 -7.415574 27.590957 19.106281 -21.055318 27.859589 42.152987 14.703673 0.000000 -0.000000 -0.000003 6.438764 6.867043 -86.304624 7.312876 6.867708 -93.605304 -0.000000 -0.000001 -0.000000 6.436814 6.866919 -86.288409 7.314811 6.867580 -93.621533 0.000000 -0.000001 -0.000002 6.438743 6.867022 -86.304597 7.312867 6.867711 -93.605304 -0.000001 0.000001 0.000002 10.514961 7.128897 -86.291025 7.312039 2.781453 -93.595298 -0.000001 -0.000001 -0.000002 0.000002 0.000001 -0.000001 -1.129698 -10.661993 8.143386 -61.066966 65.570431 77.632545 -0.000183 81.745883 0.000169 -15.442861 16.436780 -32.999615 35.509597 -4.573190 10.809944 66.380805 -29.907985 29.548720 0.000000 -0.000002 0.000001 5.945879 -6.875929 81.685333 8.620196 -6.745031 103.956579 -0.000001 -0.000002 0.000003 5.945864 -6.875927 81.685354 8.620190 -6.745033 103.956572 -0.000003 0.000000 -0.000002 5.945866 -6.875903 81.685354 8.620183 -6.745030 103.956579 -0.000000 -0.000002 -0.000002 5.945859 -6.875894 81.685347 8.620208 -6.745044 103.956572 -0.000000 0.000001 -0.000001 -0.000001 -0.000001 -0.000001 0.000001 -0.000001 -0.000000 0.000001 -0.000001 -0.000000 0.000001 -0.000001 -0.000000 0.000001 -0.000001 -0.000000 0.000001 -0.000001 -0.000000 0.000001 -0.000001 -0.000000 0.000001 -0.000001 -0.000000 0.000001 -0.000001 -0.000000 0.000001 -0.000001 -0.000000 -0.000000 0.000001 -0.000000 -0.000000 0.000001 -0.000000 -0.000000 0.000000 -0.000000 
-0.128885 79.311493 -0.091530 1.363658 -27.061566 0.838817 0.000000 0.000001 -0.000000 -28.972706 25.776111 14.227317 26.263022 8.599942 10.431476 -1.015454 0.648591 -12.020290 0.000000 -0.000001 -0.000000 0.000000 -0.000001 -0.000000 -0.000000 0.000002 0.000001 -20.351720 -17.136642 -9.669092 31.918478 -0.975133 -7.229301 -13.496829 -1.888267 10.690949 0.000000 0.000000 -0.000000 0.000000 0.000000 -0.000000 -0.000000 0.000000 0.000000 3.666233 -1.986447 1.003064 1.363089 -0.820722 0.173820 1.366616 -0.813802 0.178804 -1.882821 4.550447 2.481604 17.052708 24.883298 -12.703477 -0.000001 0.000000 -0.000000 -0.000001 0.000000 -0.000000 -0.000001 0.000000 -0.000000 -0.308281 3.435131 4.918956 -51.567512 -1.700403 -52.299325 0.000600 -84.588450 0.000626 -12.294684 -17.380823 -7.430955 27.590968 19.106290 -21.055325 27.859583 42.152991 14.703676 0.000001 -0.000001 0.000002 6.438767 6.867044 -86.304624 7.312877 6.867707 -93.605297 -0.000001 0.000001 -0.000000 6.436817 6.866919 -86.288403 7.314815 6.867581 -93.621526 -0.000001 0.000001 -0.000003 6.438748 6.867024 -86.304604 7.312868 6.867712 -93.605311 -0.000003 0.000003 0.000002 10.514964 7.128902 -86.291025 7.312039 2.781453 -93.595298 -0.000002 0.000001 -0.000000 0.000002 0.000001 0.000001 -1.127374 -10.685157 8.203406 -61.032767 65.576851 77.592670 0.000078 81.763307 -0.000067 -15.337700 16.323414 -32.921761 35.509600 -4.573191 10.809947 66.380805 -29.907985 29.548723 0.000000 -0.000002 -0.000002 5.945882 -6.875927 81.685333 8.620196 -6.745030 103.956579 -0.000001 0.000000 0.000005 5.945866 -6.875922 81.685347 8.620189 -6.745035 103.956579 0.000000 -0.000001 -0.000002 5.945873 -6.875901 81.685354 8.620181 -6.745033 103.956586 0.000003 -0.000003 0.000002 5.945863 -6.875896 81.685347 8.620211 -6.745036 103.956572 0.000001 0.000003 0.000001 -0.000001 0.000001 -0.000000 -0.000000 0.000002 -0.000001 -0.000000 0.000002 -0.000001 -0.000000 0.000002 -0.000001 -0.000000 0.000002 -0.000001 -0.000000 0.000002 -0.000000 -0.000000 0.000002 -0.000000 -0.000000 0.000002 -0.000001 -0.000000 0.000002 -0.000000 -0.000000 0.000002 -0.000000 0.000000 0.000000 -0.000000 0.000000 0.000000 -0.000000 0.000000 0.000001 -0.000000 
-0.129735 79.312233 -0.092983 1.364022 -27.055291 0.832611 0.000000 -0.000001 0.000000 -28.989334 25.802947 14.245879 26.266449 8.563128 10.431687 -1.015818 0.648587 -12.012098 0.000000 -0.000000 -0.000000 0.000000 -0.000000 -0.000000 0.000000 -0.000001 0.000002 -20.342699 -17.129496 -9.654688 31.908690 -1.001557 -7.230793 -13.491629 -1.888504 10.696236 0.000000 0.000000 -0.000000 0.000000 0.000000 -0.000000 -0.000000 0.000002 -0.000001 3.659635 -1.986491 1.003243 1.361890 -0.820749 0.173847 1.365415 -0.813849 0.178831 -1.873935 4.545143 2.494240 17.054402 24.886832 -12.705630 0.000002 0.000000 -0.000000 0.000002 0.000000 -0.000000 0.000002 0.000000 -0.000000 -0.307941 3.431328 4.918804 -51.600822 -1.706266 -52.314820 0.000805 -84.572434 0.000839 -12.351145 -17.378788 -7.461670 27.590959 19.106281 -21.055323 27.859582 42.152994 14.703676 -0.000000 -0.000001 0.000002 6.438765 6.867043 -86.304631 7.312879 6.867709 -93.605304 0.000001 0.000000 -0.000004 6.436814 6.866918 -86.288403 7.314814 6.867581 -93.621526 -0.000001 -0.000003 0.000001 6.438745 6.867021 -86.304597 7.312865 6.867710 -93.605318 -0.000001 0.000001 -0.000000 10.514962 7.128897 -86.291025 7.312039 2.781452 -93.595298 0.000001 0.000001 -0.000000 0.000001 0.000000 0.000003 -1.125350 -10.703799 8.253319 -60.998043 65.595894 77.553615 0.000106 81.773210 -0.000119 -15.257922 16.188496 -32.872112 35.509597 -4.573187 10.809940 66.380799 -29.907985 29.548717 0.000001 -0.000003 -0.000001 5.945878 -6.875927 81.685333 8.620197 -6.745031 103.956586 0.000000 0.000000 0.000004 5.945864 -6.875922 81.685347 8.620181 -6.745038 103.956572 0.000001 -0.000004 -0.000002 5.945869 -6.875901 81.685354 8.620184 -6.745027 103.956579 -0.000000 -0.000000 0.000000 5.945864 -6.875899 81.685354 8.620209 -6.745043 103.956572 -0.000003 0.000001 0.000004 -0.000000 0.000000 -0.000001 -0.000000 0.000002 -0.000000 -0.000000 0.000002 -0.000000 -0.000000 0.000002 -0.000000 -0.000000 0.000002 -0.000000 -0.000000 0.000002 -0.000000 -0.000000 0.000004 -0.000001 -0.000000 0.000002 -0.000000 -0.000000 0.000002 -0.000000 -0.000000 0.000004 -0.000001 0.000000 0.000002 -0.000000 0.000000 0.000002 -0.000000 0.000000 -0.000001 0.000000 
-0.130453 79.312988 -0.094692 1.364397 -27.049395 0.825145 0.000000 -0.000000 -0.000000 -29.011587 25.841310 14.271045 26.272336 8.512747 10.431851 -1.017664 0.648683 -12.001126 -0.000000 -0.000000 0.000000 -0.000000 -0.000000 0.000000 -0.000000 0.000000 0.000001 -20.331509 -17.114840 -9.639635 31.897895 -1.031241 -7.225999 -13.486075 -1.887720 10.699799 0.000000 0.000000 0.000000 0.000000 0.000000 0.000000 -0.000000 -0.000001 0.000001 3.652950 -1.983180 1.003559 1.359631 -0.820056 0.173905 1.363165 -0.813154 0.178892 -1.864814 4.541549 2.505154 17.054354 24.890951 -12.708791 0.000001 -0.000000 -0.000000 0.000001 -0.000000 -0.000000 0.000001 -0.000000 -0.000000 -0.306417 3.435014 4.888568 -51.635851 -1.710356 -52.332783 -0.000354 -84.553883 -0.000367 -12.412318 -17.397697 -7.494334 27.590962 19.106283 -21.055327 27.859582 42.152991 14.703671 -0.000000 -0.000001 0.000003 6.438763 6.867044 -86.304624 7.312874 6.867707 -93.605304 -0.000001 -0.000001 0.000001 6.436815 6.866919 -86.288409 7.314815 6.867582 -93.621533 -0.000002 -0.000000 0.000000 6.438743 6.867025 -86.304597 7.312867 6.867709 -93.605311 -0.000002 0.000001 0.000001 10.514962 7.128902 -86.291025 7.312039 2.781452 -93.595305 0.000001 -0.000001 -0.000002 0.000003 -0.000001 0.000005 -1.123387 -10.721031 8.300133 -60.963304 65.619834 77.514424 0.000438 81.780676 -0.000463 -15.193578 16.057433 -32.834464 35.509597 -4.573186 10.809936 66.380805 -29.907981 29.548723 0.000001 0.000003 0.000000 5.945879 -6.875925 81.685333 8.620195 -6.745029 103.956579 -0.000002 0.000000 0.000004 5.945858 -6.875916 81.685347 8.620186 -6.745035 103.956579 0.000000 -0.000001 -0.000000 5.945868 -6.875902 81.685347 8.620182 -6.745027 103.956579 0.000002 -0.000003 -0.000000 5.945859 -6.875894 81.685347 8.620209 -6.745040 103.956572 -0.000001 0.000001 0.000000 -0.000001 0.000000 0.000002 0.000000 0.000001 0.000000 0.000000 0.000001 0.000000 0.000000 0.000001 0.000000 0.000000 0.000001 0.000000 0.000000 0.000001 -0.000000 0.000000 -0.000001 -0.000000 0.000000 0.000001 0.000000 0.000000 0.000001 -0.000000 0.000000 -0.000001 -0.000000 0.000001 -0.000001 -0.000000 0.000001 -0.000001 -0.000000 0.000000 -0.000000 -0.000000 
